# xmcd
#
# Track frame offsets: 
#        150
#        17397
#        34115
#        62567
#        75467
#        110805
#        141105
#        154887
#        176145
#
# Disc length: 2742 seconds
#
# Revision: 0
# Processed by: cddbd v1.4PL0 Copyright (c) Steve Scherf et al.
# Submitted via: ExactAudioCopy v0.95a3
#
DISCID=6e0ab409
DTITLE=Stevie Ray Vaughan and Double Trouble - Live USA
DYEAR=1983
DGENRE=Blues
TTITLE0=The Big Run
TTITLE1=Pride And Joy
TTITLE2=Voodoo Child
TTITLE3=Love Struck Baby
TTITLE4=Texas Flood
TTITLE5=Stormy Monday Blues
TTITLE6=Clothing Time
TTITLE7=Superstition
TTITLE8=Could Shot
EXTD=
EXTT0=
EXTT1=
EXTT2=
EXTT3=
EXTT4=
EXTT5=
EXTT6=
EXTT7=
EXTT8=
PLAYORDER=
